<svg width="32" height="22" viewBox="0 0 32 22" fill="none" xmlns="http://www.w3.org/2000/svg">
<path d="M26.1001 9.02925C25.7461 8.92693 25.3771 9.13392 25.2759 9.49137C25.1746 9.84882 25.3795 10.2215 25.7335 10.3237C28.7764 11.2024 30.6667 12.477 30.6667 13.65C30.6667 14.5084 29.6327 15.4506 27.8299 16.235C25.8464 17.098 23.0327 17.7295 19.9038 18.0139L17.1729 17.9765C17.1698 17.9765 17.1667 17.9764 17.1637 17.9764C16.7997 17.9764 16.5022 18.2719 16.4973 18.6405C16.4923 19.0122 16.7867 19.3177 17.1548 19.3227L19.9201 19.3605C19.9231 19.3605 19.9261 19.3606 19.9291 19.3606C19.9489 19.3606 19.9687 19.3597 19.9883 19.358C23.2681 19.0627 26.2403 18.3927 28.3575 17.4715C31.3681 16.1615 32 14.6703 32 13.65C32 11.7689 29.9047 10.1279 26.1001 9.02925Z" fill="#271A45"/>
<path d="M6.45863 8.26239C6.0905 8.26239 5.79197 8.56377 5.79197 8.93555C5.79197 9.30734 6.0905 9.60872 6.45863 9.60872H9.20003V12.3911H6.45863C6.0905 12.3911 5.79197 12.6925 5.79197 13.0643C5.79197 13.436 6.0905 13.7374 6.45863 13.7374H9.8667C10.2349 13.7374 10.5334 13.436 10.5334 13.0643V4.80685C10.5334 4.43507 10.2349 4.13369 9.8667 4.13369H6.45863C6.0905 4.13369 5.79197 4.43507 5.79197 4.80685C5.79197 5.17864 6.0905 5.48001 6.45863 5.48001H9.20003V8.26239H6.45863Z" fill="#271A45"/>
<path d="M12.592 13.7375H16.6809C17.049 13.7375 17.3476 13.4361 17.3476 13.0643V8.93562C17.3476 8.56383 17.0491 8.26246 16.6809 8.26246H13.2586V5.48001H16C16.3682 5.48001 16.6667 5.17864 16.6667 4.80685C16.6667 4.43507 16.3682 4.13369 16 4.13369H12.592C12.2238 4.13369 11.9253 4.43507 11.9253 4.80685V13.0643C11.9253 13.4361 12.2238 13.7375 12.592 13.7375ZM13.2586 9.60872H16.0142V12.3911H13.2586V9.60872Z" fill="#271A45"/>
<path d="M19.4081 13.7375H23.497C23.8652 13.7375 24.1637 13.4361 24.1637 13.0643V4.80685C24.1637 4.43507 23.8652 4.13369 23.497 4.13369H19.4081C19.04 4.13369 18.7414 4.43507 18.7414 4.80685V13.0643C18.7414 13.4361 19.04 13.7375 19.4081 13.7375ZM20.0748 5.48001H22.8304V12.3912H20.0748V5.48001Z" fill="#271A45"/>
<path d="M12.1905 15.4116C11.9527 15.1278 11.532 15.0924 11.2509 15.3325C10.9698 15.5726 10.9347 15.9973 11.1725 16.2812L12.6635 18.061C9.51714 17.8187 6.66747 17.2364 4.5722 16.4017C2.51387 15.5815 1.33333 14.5786 1.33333 13.65C1.33333 12.5717 2.91573 11.4097 5.5662 10.5416C5.91647 10.4269 6.10827 10.0472 5.99467 9.69354C5.88114 9.33992 5.505 9.14626 5.15487 9.2609C3.61293 9.7659 2.3902 10.3667 1.52053 11.0465C0.5116 11.8355 0 12.7113 0 13.65C0 15.2052 1.41187 16.5897 4.0828 17.6539C6.25374 18.5189 9.1646 19.1261 12.3645 19.3879L11.0349 20.8758C10.7883 21.1518 10.8099 21.5775 11.0833 21.8265C11.2107 21.9427 11.3705 21.9999 11.5297 21.9999C11.7117 21.9999 11.8932 21.925 12.0248 21.7777L14.4506 19.0632C14.5611 18.9395 14.6223 18.7789 14.6223 18.6123V18.5608C14.6223 18.4016 14.5665 18.2476 14.4647 18.1261L12.1905 15.4116Z" fill="#271A45"/>
<path d="M25.4276 4.09909H28.1529C28.521 4.09909 28.8196 3.79771 28.8196 3.42593V0.673101C28.8196 0.301313 28.521 -6.10352e-05 28.1529 -6.10352e-05H25.4276C25.0595 -6.10352e-05 24.761 0.301313 24.761 0.673101V3.42593C24.761 3.79771 25.0595 4.09909 25.4276 4.09909ZM26.0943 1.34626H27.4862V2.75277H26.0943V1.34626Z" fill="#271A45"/>
</svg>
