<svg width="20" height="20" viewBox="0 0 20 20" fill="none" xmlns="http://www.w3.org/2000/svg">
<path fill-rule="evenodd" clip-rule="evenodd" d="M0.244078 0.244017C0.569515 -0.0814203 1.09715 -0.0814203 1.42259 0.244017L10 8.82143L18.5774 0.244017C18.9028 -0.0814203 19.4305 -0.0814203 19.7559 0.244017C20.0814 0.569454 20.0814 1.09709 19.7559 1.42253L11.1785 9.99994L19.7559 18.5773C20.0814 18.9028 20.0814 19.4304 19.7559 19.7559C19.4305 20.0813 18.9028 20.0813 18.5774 19.7559L10 11.1784L1.42259 19.7559C1.09715 20.0813 0.569515 20.0813 0.244078 19.7559C-0.0813592 19.4304 -0.0813592 18.9028 0.244078 18.5773L8.82149 9.99994L0.244078 1.42253C-0.0813592 1.09709 -0.0813592 0.569454 0.244078 0.244017Z" fill="#271A45"/>
</svg>
